<svg xmlns="http://www.w3.org/2000/svg" width="12.1" height="12.1" viewBox="0 1.15 12.1 12.1"><path d="M11.235 9.793H9.507a.865.865 0 0 0-.864.864v1.728c0 .477.387.865.864.865h1.728a.865.865 0 0 0 .865-.865v-1.728a.865.865 0 0 0-.865-.864Zm-8.642 0H.864a.865.865 0 0 0-.864.864v1.728c0 .477.387.865.864.865h1.729a.865.865 0 0 0 .864-.865v-1.728a.865.865 0 0 0-.864-.864Zm0-4.322H.864A.865.865 0 0 0 0 6.336v1.728c0 .477.387.864.864.864h1.729a.865.865 0 0 0 .864-.864V6.336a.865.865 0 0 0-.864-.865Zm4.321 4.322H5.186a.865.865 0 0 0-.865.864v1.728c0 .477.388.865.865.865h1.728a.865.865 0 0 0 .864-.865v-1.728a.865.865 0 0 0-.864-.864Zm0-4.322H5.186a.865.865 0 0 0-.865.865v1.728c0 .477.388.864.865.864h1.728a.865.865 0 0 0 .864-.864V6.336a.865.865 0 0 0-.864-.865Zm4.321-4.32H9.507a.865.865 0 0 0-.864.863v1.729c0 .477.387.864.864.864h1.728a.865.865 0 0 0 .865-.864V2.014a.865.865 0 0 0-.865-.864Zm-4.32 0h-1.73a.865.865 0 0 0-.864.863v1.729c0 .477.388.864.865.864h1.728a.865.865 0 0 0 .864-.864V2.014a.865.865 0 0 0-.864-.864Zm4.32 4.32H9.507a.865.865 0 0 0-.864.865v1.728c0 .477.387.864.864.864h1.728a.865.865 0 0 0 .865-.864V6.336a.865.865 0 0 0-.865-.865Zm-8.642-4.32H.864A.865.865 0 0 0 0 2.013v1.729a.865.865 0 0 0 .864.864h1.729a.865.865 0 0 0 .864-.864V2.014a.865.865 0 0 0-.864-.864Z" fill="#fff" fill-rule="evenodd" data-name="dial-pad"/></svg>