<svg xmlns="http://www.w3.org/2000/svg" width="20.072" height="25.668" viewBox="1287.964 51.662 20.072 25.668"><path d="M1295.132 57.678v4.01a1.284 1.284 0 0 0 .26.781 1.032 1.032 0 0 0 .816.422h.358V77.33h2.867V62.89h.359a1.08 1.08 0 0 0 .98-.709 1.313 1.313 0 0 0 .095-.494v-4.01a1.284 1.284 0 0 0-.259-.781 1.032 1.032 0 0 0-.816-.422h-.359v-4.813h-2.867v4.813h-.358c-.592 0-1.076.541-1.076 1.203Zm7.169 9.625v4.01a1.284 1.284 0 0 0 .259.782 1.032 1.032 0 0 0 .816.422h.358v4.813h2.868v-4.813h.358c.592 0 1.075-.542 1.075-1.203v-4.01a1.284 1.284 0 0 0-.258-.782 1.032 1.032 0 0 0-.817-.422h-.358V51.662h-2.868V66.1h-.358a1.08 1.08 0 0 0-.98.71 1.313 1.313 0 0 0-.095.493Zm-12.903-1.203h-.359a1.08 1.08 0 0 0-.98.71 1.313 1.313 0 0 0-.095.493v4.01a1.284 1.284 0 0 0 .259.782 1.032 1.032 0 0 0 .816.422h.359v4.813h2.867v-4.813h.358c.592 0 1.076-.542 1.076-1.203v-4.01a1.284 1.284 0 0 0-.26-.782 1.032 1.032 0 0 0-.816-.422h-.358V51.662h-2.867V66.1Zm17.204 4.813h-2.868v-3.209h2.868v3.209Zm-14.337 0h-2.867v-3.209h2.867v3.209Zm7.168-9.626h-2.867V58.08h2.867v3.208Z" fill="#aaa" fill-rule="evenodd" data-name="equalizer"/></svg>