<svg xmlns="http://www.w3.org/2000/svg" width="12.1" height="10.371" viewBox="0 48.4 12.1 10.371"><path d="M11.581 57.043H4.84c-.477 0-.519.386-.519.864 0 .425.033.778.376.85a.688.688 0 0 0 .143.014h6.741a.604.604 0 0 0 .211-.033c.28-.104.308-.436.308-.831a2.87 2.87 0 0 0-.019-.375c-.033-.245-.123-.426-.357-.476a.688.688 0 0 0-.143-.013ZM4.84 50.129h6.741a.604.604 0 0 0 .211-.034c.28-.104.308-.436.308-.83a2.87 2.87 0 0 0-.019-.376c-.033-.245-.123-.425-.357-.475a.688.688 0 0 0-.143-.014H4.84c-.477 0-.519.386-.519.864 0 .425.033.778.376.85a.688.688 0 0 0 .143.015Zm5.013 2.592H4.84c-.477 0-.519.387-.519.865 0 .425.033.777.376.85a.688.688 0 0 0 .143.014h5.013c.477 0 .518-.386.518-.864s-.041-.865-.518-.865Zm-7.779 4.322H.52c-.477 0-.519.386-.519.864 0 .425.033.778.376.85a.688.688 0 0 0 .143.014h1.555a.604.604 0 0 0 .212-.033c.239-.09.294-.347.304-.668a4.922 4.922 0 0 0 .003-.163 2.87 2.87 0 0 0-.019-.375c-.033-.245-.122-.426-.357-.476a.688.688 0 0 0-.143-.013Zm0-4.322H.52c-.477 0-.519.387-.519.865 0 .425.033.777.376.85a.688.688 0 0 0 .143.014h1.555a.604.604 0 0 0 .212-.034c.278-.103.307-.436.307-.83a2.87 2.87 0 0 0-.019-.375c-.033-.246-.122-.426-.357-.476a.688.688 0 0 0-.143-.014Zm0-4.321H.52c-.477 0-.519.386-.519.864 0 .425.033.778.376.85a.688.688 0 0 0 .143.015h1.555a.604.604 0 0 0 .212-.034c.278-.104.307-.436.307-.83a2.87 2.87 0 0 0-.019-.376c-.033-.245-.122-.425-.357-.475a.688.688 0 0 0-.143-.014Z" fill="#fff" fill-rule="evenodd" data-name="list"/></svg>