<svg xmlns="http://www.w3.org/2000/svg" width="25.583" height="25.483" viewBox="1340.208 48.758 25.583 25.483"><path d="m19.748 8.875 4.621-1.502C22.541 3.49 18.817.676 14.391.125v4.857h-.001a8.005 8.005 0 0 1 5.358 3.893Zm-14.901 3.04-4.622-1.5a12.847 12.847 0 0 0-.226 2.4 12.729 12.729 0 0 0 2.267 7.272 12.86 12.86 0 0 0 1.772 2.055l2.855-3.93a7.963 7.963 0 0 1-2.077-4.817 8.108 8.108 0 0 1-.02-.58v.001a8.163 8.163 0 0 1 .05-.9Zm13.841 6.298 2.855 3.93a12.755 12.755 0 0 0 4.039-9.326 12.847 12.847 0 0 0-.226-2.402l-4.622 1.502a8.162 8.162 0 0 1 .05.9l.001-.001a7.956 7.956 0 0 1-1.22 4.246 8.027 8.027 0 0 1-.877 1.151ZM9.48 20.094l-2.856 3.93a12.725 12.725 0 0 0 5.542 1.568 12.983 12.983 0 0 0 .625.015 12.744 12.744 0 0 0 5.29-1.143 12.776 12.776 0 0 0 .877-.44l-2.856-3.93a7.96 7.96 0 0 1-3.09.713 8.127 8.127 0 0 1-.221.003 7.973 7.973 0 0 1-3-.582 7.958 7.958 0 0 1-.311-.134Zm1.712-15.113V.124a12.802 12.802 0 0 0-9.979 7.249l4.621 1.5a8.008 8.008 0 0 1 5.358-3.892Z" fill-rule="evenodd" fill="url(&quot;#a&quot;)" transform="translate(1340.21 48.634)" data-name="spinner4"/><defs><linearGradient x1=".5" y1="0" x2=".5" y2="1" id="a"><stop stop-color="#6317a7" offset="0"/><stop stop-color="#ff0070" offset="0"/><stop stop-color="#dec909" offset=".192"/><stop stop-color="red" offset=".477"/><stop stop-color="#4fd037" offset=".782"/><stop stop-color="#ed4e94" offset="1"/></linearGradient></defs></svg>