<svg xmlns="http://www.w3.org/2000/svg" width="12.699" height="12.312" viewBox="0 136.5 12.699 12.312"><path d="M0 148.19v.622h12.7v-.622a1.743 1.743 0 0 0-.73-1.34c-.56-.468-1.377-.83-2.193-1.143a28.75 28.75 0 0 0-.131-.05c-1.411-.536-1.917-.992-1.972-1.9a2.922 2.922 0 0 1-.005-.175.955.955 0 0 1 .01-.146c.067-.425.432-.375.623-1.272a3.74 3.74 0 0 0 .025-.125c.08-.447.452-.048.554-.939a3.388 3.388 0 0 0 .012-.137 1.094 1.094 0 0 0-.005-.111c-.029-.28-.161-.386-.203-.413a.148.148 0 0 0-.012-.007 4.85 4.85 0 0 0 .001-.011c.015-.087.113-.658.154-1.105.046-.508-.28-1.593-1.623-1.926a.615.615 0 0 1-.18-.252c-.056-.169.014-.368.383-.57a2.2 2.2 0 0 1 .126-.064c-1.541-.064-1.929.629-2.728 1.16a3.691 3.691 0 0 1-.061.04c-.717.47-.91 1.215-.874 1.612.045.484.156 1.115.156 1.115a.1.1 0 0 0-.007.004c-.035.021-.19.13-.211.451a1.138 1.138 0 0 0-.003.076c.077 1.069.482.608.566 1.076a3.502 3.502 0 0 0 .043.211c.217.894.615.758.615 1.333a2.063 2.063 0 0 1-.097.673c-.205.597-.755.974-1.88 1.4a28.898 28.898 0 0 0-.133.051c-1.066.412-2.133.903-2.63 1.608a1.492 1.492 0 0 0-.29.876Z" fill="#fff" fill-rule="evenodd" data-name="user"/></svg>